<svg width="28" height="32" viewBox="70 65 120 130" xmlns="http://www.w3.org/2000/svg">
    <defs>
        <linearGradient id="logoGrad" x1="0%" y1="0%" x2="100%" y2="100%">
            <stop offset="0%" stop-color="#3b82f6"/>
            <stop offset="50%" stop-color="#8b5cf6"/>
            <stop offset="100%" stop-color="#ec4899"/>
        </linearGradient>
    </defs>
    <path d="M 81.476562 77.955078 L 81.476562 177.95508 L 181.47656 177.95508 L 181.47656 77.955078 L 151.4375 77.955078 A 20 20 0 0 1 151.47656 79.140625 A 20 20 0 0 1 131.47656 99.140625 A 20 20 0 0 1 111.47656 79.140625 A 20 20 0 0 1 111.56055 77.955078 L 81.476562 77.955078 z M 98.810547 114.31055 L 164.14258 114.31055 L 164.14258 118.60938 L 98.810547 118.60938 L 98.810547 114.31055 z M 98.810547 129.94531 L 164.14258 129.94531 L 164.14258 134.24414 L 98.810547 134.24414 L 98.810547 129.94531 z M 98.810547 145.58203 L 164.14258 145.58203 L 164.14258 149.88086 L 98.810547 149.88086 L 98.810547 145.58203 z" fill="url(#logoGrad)"/>
    <circle cx="131.97635" cy="78.919952" r="15" fill="url(#logoGrad)"/>
</svg>
